<svg xmlns="http://www.w3.org/2000/svg" id="Layer_1" data-name="Layer 1" viewBox="0 0 744.76 818.17"><defs><style>.cls-1{fill:#a2a2a2;}.cls-2{fill:gray;}.cls-3{fill:#5d5d5d;}.cls-4{fill:#fff;}.cls-5{fill:#e8e8e8;}.cls-6{fill:#c5c5c5;}</style></defs><path class="cls-1" d="M575.43,842.07l.3,1.1c9,33.08-31.75,65.91-90.23,65.91h0c-58.48,0-99.2-32.83-90.23-65.91l.3-1.1,51.29-246.43c6.79-32.61,70.5-32.61,77.29,0Z" transform="translate(-113.32 -90.92)"></path><path class="cls-2" d="M234.32,748.75l-.8.81c-24.16,24.31-73,5.46-102.2-45.19h0c-29.24-50.64-21.17-102.33,12-111.09l1.1-.29,239.06-78.8c31.64-10.43,63.49,44.74,38.64,66.93Z" transform="translate(-113.32 -90.92)"></path><path class="cls-3" d="M144.59,406.68l-1.1-.29c-33.14-8.77-41.21-60.46-12-111.1h0c29.23-50.65,78-69.5,102.19-45.18l.81.81L422.28,418.54c24.86,22.19-7,77.37-38.64,66.94Z" transform="translate(-113.32 -90.92)"></path><path class="cls-4" d="M396,157.93l-.3-1.1c-9-33.08,31.75-65.91,90.23-65.91h0c58.48,0,99.2,32.83,90.23,65.91l-.3,1.1L524.53,404.36c-6.78,32.61-70.5,32.61-77.28,0Z" transform="translate(-113.32 -90.92)"></path><path class="cls-5" d="M737.07,251.25l.8-.81c24.17-24.31,73-5.46,102.2,45.19h0c29.24,50.64,21.17,102.33-12,111.09L827,407l-239,78.8c-31.65,10.43-63.5-44.74-38.65-66.93Z" transform="translate(-113.32 -90.92)"></path><path class="cls-6" d="M826.8,593.32l1.11.29c33.14,8.77,41.21,60.46,12,111.1h0c-29.24,50.64-78,69.5-102.2,45.18l-.8-.81L549.11,581.46c-24.86-22.19,7-77.37,38.64-66.94Z" transform="translate(-113.32 -90.92)"></path><path class="cls-1" d="M575.43,842.07l.3,1.1c9,33.08-31.75,65.91-90.23,65.91h0c-58.48,0-99.2-32.83-90.23-65.91l.3-1.1,51.29-246.43c6.79-32.61,70.5-32.61,77.29,0Z" transform="translate(-113.32 -90.92)"></path></svg>