<svg xmlns="http://www.w3.org/2000/svg" id="Layer_1" data-name="Layer 1" viewBox="0 0 744.76 791.58"><defs><style>.cls-1{fill:#a2a2a2;}.cls-2{fill:gray;}.cls-3{fill:#5d5d5d;}.cls-4{fill:#fff;}.cls-5{fill:#e8e8e8;}.cls-6{fill:#c5c5c5;}</style></defs><path class="cls-1" d="M480.07,838.22c.25.4.56.76.85,1.14,25.33,34.31,75.27,43.56,104.48,14.35h0c29.21-29.21,20-79.15-14.35-104.49a13.38,13.38,0,0,0-1.14-.84C528.74,723.57,396.67,665,396.67,665S455.26,797.05,480.07,838.22Z" transform="translate(-127.62 -79.59)"></path><path class="cls-2" d="M175.8,639.54c-.22.41-.37.87-.56,1.3-17,39.1-.09,87,39.81,97.66h0c39.91,10.7,78.53-22.29,83.32-64.67.05-.47.15-.93.16-1.4.9-48.07-14.39-191.74-14.39-191.74S199.06,597.47,175.8,639.54Z" transform="translate(-127.62 -79.59)"></path><path class="cls-3" d="M195.73,276.7a13.52,13.52,0,0,0-1.41.16c-42.38,4.79-75.36,43.41-64.67,83.31h0c10.69,39.9,58.57,56.86,97.67,39.82.43-.19.88-.34,1.29-.57,42.08-23.25,158.86-108.33,158.86-108.33S243.79,275.8,195.73,276.7Z" transform="translate(-127.62 -79.59)"></path><path class="cls-4" d="M519.93,112.53c-.25-.4-.56-.76-.85-1.14C493.75,77.08,443.81,67.83,414.6,97h0c-29.21,29.21-20,79.15,14.35,104.49a13.38,13.38,0,0,0,1.14.84c41.17,24.81,173.24,83.41,173.24,83.41S544.74,153.7,519.93,112.53Z" transform="translate(-127.62 -79.59)"></path><path class="cls-5" d="M824.2,311.21c.22-.41.37-.86.56-1.3,17-39.1.09-87-39.81-97.66h0c-39.91-10.69-78.53,22.29-83.32,64.67,0,.47-.15.93-.16,1.41-.9,48.06,14.39,191.73,14.39,191.73S800.94,353.28,824.2,311.21Z" transform="translate(-127.62 -79.59)"></path><path class="cls-6" d="M804.27,674.05a13.49,13.49,0,0,0,1.41-.15c42.38-4.79,75.36-43.42,64.67-83.32h0c-10.69-39.9-58.57-56.85-97.67-39.81-.43.19-.88.33-1.29.56-42.08,23.25-158.86,108.33-158.86,108.33S756.21,675,804.27,674.05Z" transform="translate(-127.62 -79.59)"></path><path class="cls-1" d="M480.07,838.22c.25.4.56.76.85,1.14,25.33,34.31,75.27,43.56,104.48,14.35h0c29.21-29.21,20-79.15-14.35-104.49a13.38,13.38,0,0,0-1.14-.84C528.74,723.57,396.67,665,396.67,665S455.26,797.05,480.07,838.22Z" transform="translate(-127.62 -79.59)"></path></svg>