<svg xmlns="http://www.w3.org/2000/svg" id="Layer_1" data-name="Layer 1" viewBox="0 0 744.76 859.74"><defs><style>.cls-1{fill:#a2a2a2;}.cls-2{fill:gray;}.cls-3{fill:#5d5d5d;}.cls-4{fill:#fff;}.cls-5{fill:#e8e8e8;}.cls-6{fill:#c5c5c5;}</style></defs><path class="cls-1" d="M514.72,559.22a203.08,203.08,0,0,1,24.47,23.16,254.89,254.89,0,0,1,18.59,23.17,245.62,245.62,0,0,1,26,46.33,235.22,235.22,0,0,1,19,92.66A232.6,232.6,0,0,1,584,837.21a224.74,224.74,0,0,1-11.36,23.16A248,248,0,0,1,558,883.54a257.58,257.58,0,0,1-18.67,23.17,203.43,203.43,0,0,1-24.61,23.16,201.94,201.94,0,0,1-24.61-23.16,257.74,257.74,0,0,1-18.68-23.17,250.08,250.08,0,0,1-14.66-23.17,224.74,224.74,0,0,1-11.36-23.16,232.6,232.6,0,0,1-18.72-92.67,235.4,235.4,0,0,1,19-92.66,245.62,245.62,0,0,1,26-46.33,256.62,256.62,0,0,1,18.59-23.17A203.22,203.22,0,0,1,514.72,559.22Z" transform="translate(-142.54 -70.13)"></path><path class="cls-2" d="M463.53,529.44a203.91,203.91,0,0,1-7.82,32.78,257.83,257.83,0,0,1-10.77,27.68,245.61,245.61,0,0,1-27.13,45.67A235.15,235.15,0,0,1,347,698.33a232.55,232.55,0,0,1-89.6,30.12,225.54,225.54,0,0,1-25.75,1.75,249.45,249.45,0,0,1-27.39-1.12,254.42,254.42,0,0,1-29.4-4.59,201.91,201.91,0,0,1-32.36-9.73,201.68,201.68,0,0,1,7.75-32.89A253.59,253.59,0,0,1,161,654.11a246.92,246.92,0,0,1,12.73-24.27,225.91,225.91,0,0,1,14.38-21.43A232.7,232.7,0,0,1,259,545.87,235.25,235.25,0,0,1,348.75,516a245.68,245.68,0,0,1,53.12-.66,257.07,257.07,0,0,1,29.36,4.51A202.77,202.77,0,0,1,463.53,529.44Z" transform="translate(-142.54 -70.13)"></path><path class="cls-3" d="M463.73,470.22a203.07,203.07,0,0,1-32.3,9.62,257.41,257.41,0,0,1-29.36,4.51,246.31,246.31,0,0,1-53.12-.66,235.19,235.19,0,0,1-89.73-29.9,232.71,232.71,0,0,1-70.89-62.54A224.67,224.67,0,0,1,174,369.82a248.24,248.24,0,0,1-12.73-24.28,254.19,254.19,0,0,1-10.73-27.75,202.82,202.82,0,0,1-7.76-32.9,203,203,0,0,1,32.37-9.73,256.6,256.6,0,0,1,29.4-4.59,251.88,251.88,0,0,1,27.39-1.11,225.73,225.73,0,0,1,25.75,1.74,232.56,232.56,0,0,1,89.6,30.13A235.15,235.15,0,0,1,418,364.09a245.61,245.61,0,0,1,27.13,45.67,257.83,257.83,0,0,1,10.77,27.68A203.65,203.65,0,0,1,463.73,470.22Z" transform="translate(-142.54 -70.13)"></path><path class="cls-4" d="M515.11,440.78a204,204,0,0,1-24.48-23.16A258.38,258.38,0,0,1,472,394.45a246.11,246.11,0,0,1-26-46.33,235.22,235.22,0,0,1-19-92.66,232.76,232.76,0,0,1,18.71-92.67,226.91,226.91,0,0,1,11.37-23.16,245.93,245.93,0,0,1,14.66-23.17A257.58,257.58,0,0,1,490.5,93.29a202.68,202.68,0,0,1,24.61-23.16,201.94,201.94,0,0,1,24.61,23.16,257.74,257.74,0,0,1,18.68,23.17,247.84,247.84,0,0,1,14.65,23.17,224.85,224.85,0,0,1,11.37,23.16,232.59,232.59,0,0,1,18.71,92.67,235.38,235.38,0,0,1-19,92.66,246.18,246.18,0,0,1-26,46.33,258.38,258.38,0,0,1-18.59,23.17A203.22,203.22,0,0,1,515.11,440.78Z" transform="translate(-142.54 -70.13)"></path><path class="cls-5" d="M566.3,470.56a202.85,202.85,0,0,1,7.82-32.78,255.75,255.75,0,0,1,10.77-27.68A245.61,245.61,0,0,1,612,364.43a235.23,235.23,0,0,1,70.76-62.76,232.66,232.66,0,0,1,89.61-30.12,227.82,227.82,0,0,1,25.74-1.75,249.53,249.53,0,0,1,27.4,1.12,254.76,254.76,0,0,1,29.4,4.59,201.91,201.91,0,0,1,32.36,9.73,202.47,202.47,0,0,1-7.75,32.89,257.71,257.71,0,0,1-10.73,27.76,246.92,246.92,0,0,1-12.73,24.27,225.91,225.91,0,0,1-14.38,21.43,232.7,232.7,0,0,1-70.89,62.54A235.24,235.24,0,0,1,681.07,484a245.66,245.66,0,0,1-53.12.66,256.91,256.91,0,0,1-29.35-4.51A202.77,202.77,0,0,1,566.3,470.56Z" transform="translate(-142.54 -70.13)"></path><path class="cls-6" d="M566.1,529.78a202.77,202.77,0,0,1,32.3-9.62,256.74,256.74,0,0,1,29.36-4.51,246.22,246.22,0,0,1,53.11.66,235.41,235.41,0,0,1,89.74,29.9,232.83,232.83,0,0,1,70.89,62.54,228.5,228.5,0,0,1,14.38,21.43,248.24,248.24,0,0,1,12.73,24.28,254.19,254.19,0,0,1,10.73,27.75,201.81,201.81,0,0,1,7.75,32.9,202.93,202.93,0,0,1-32.36,9.73,256.94,256.94,0,0,1-29.4,4.59,251.88,251.88,0,0,1-27.39,1.11,225.57,225.57,0,0,1-25.75-1.74,232.67,232.67,0,0,1-89.61-30.13,235.23,235.23,0,0,1-70.76-62.76,245.61,245.61,0,0,1-27.13-45.67,255.75,255.75,0,0,1-10.77-27.68A203.65,203.65,0,0,1,566.1,529.78Z" transform="translate(-142.54 -70.13)"></path><path class="cls-1" d="M514.72,559.22a203.08,203.08,0,0,1,24.47,23.16,254.89,254.89,0,0,1,18.59,23.17,245.62,245.62,0,0,1,26,46.33,235.22,235.22,0,0,1,19,92.66A232.6,232.6,0,0,1,584,837.21a224.74,224.74,0,0,1-11.36,23.16A248,248,0,0,1,558,883.54a257.58,257.58,0,0,1-18.67,23.17,203.43,203.43,0,0,1-24.61,23.16,201.94,201.94,0,0,1-24.61-23.16,257.74,257.74,0,0,1-18.68-23.17,250.08,250.08,0,0,1-14.66-23.17,224.74,224.74,0,0,1-11.36-23.16,232.6,232.6,0,0,1-18.72-92.67,235.4,235.4,0,0,1,19-92.66,245.62,245.62,0,0,1,26-46.33,256.62,256.62,0,0,1,18.59-23.17A203.22,203.22,0,0,1,514.72,559.22Z" transform="translate(-142.54 -70.13)"></path></svg>